{
  "accessors": [
    {
      "bufferView": 2,
      "componentType": 5126,
      "count": 216,
      "max": [
        5.123281478881836,
        3.661222457885742,
        1.0
      ],
      "min": [
        -5.034843921661377,
        -3.683622360229492,
        -1.0
      ],
      "type": "VEC3"
    },
    {
      "bufferView": 2,
      "byteOffset": 2592,
      "componentType": 5126,
      "count": 216,
      "max": [
        0.8224201202392578,
        0.8613147139549255,
        0.8988173604011536
      ],
      "min": [
        -0.822420060634613,
        -0.8613148331642151,
        -0.8988173604011536
      ],
      "type": "VEC3"
    },
    {
      "bufferView": 1,
      "componentType": 5126,
      "count": 216,
      "max": [
        0.875,
        1.0
      ],
      "min": [
        0.125,
        0.0
      ],
      "type": "VEC2"
    },
    {
      "bufferView": 0,
      "componentType": 5125,
      "count": 528,
      "type": "SCALAR"
    },
    {
      "bufferView": 2,
      "byteOffset": 5184,
      "componentType": 5126,
      "count": 869,
      "max": [
        0.9999997019767761,
        1.0,
        1.6616685390472412
      ],
      "min": [
        -0.9999990463256836,
        -0.9999993443489075,
        -0.5134327411651611
      ],
      "type": "VEC3"
    },
    {
      "bufferView": 2,
      "byteOffset": 15612,
      "componentType": 5126,
      "count": 869,
      "max": [
        1.0,
        1.0,
        1.0
      ],
      "min": [
        -1.0,
        -1.0,
        -1.0
      ],
      "type": "VEC3"
    },
    {
      "bufferView": 1,
      "byteOffset": 1728,
      "componentType": 5126,
      "count": 869,
      "max": [
        1.0,
        0.5000001192092896
      ],
      "min": [
        0.0,
        0.3749999403953552
      ],
      "type": "VEC2"
    },
    {
      "bufferView": 0,
      "byteOffset": 2112,
      "componentType": 5125,
      "count": 2778,
      "type": "SCALAR"
    },
    {
      "bufferView": 2,
      "byteOffset": 26040,
      "componentType": 5126,
      "count": 258,
      "max": [
        0.9238794445991516,
        0.9238790273666382,
        1.401099681854248
      ],
      "min": [
        -0.9238791465759277,
        -0.9238792657852173,
        -0.5134327411651611
      ],
      "type": "VEC3"
    },
    {
      "bufferView": 2,
      "byteOffset": 29136,
      "componentType": 5126,
      "count": 258,
      "max": [
        1.0,
        1.0,
        3.9396147144543647e-07
      ],
      "min": [
        -1.0,
        -1.0,
        -0.8056735396385193
      ],
      "type": "VEC3"
    },
    {
      "bufferView": 1,
      "byteOffset": 8680,
      "componentType": 5126,
      "count": 258,
      "max": [
        1.0,
        0.5000001192092896
      ],
      "min": [
        0.0,
        0.3749999403953552
      ],
      "type": "VEC2"
    },
    {
      "bufferView": 0,
      "byteOffset": 13224,
      "componentType": 5125,
      "count": 768,
      "type": "SCALAR"
    },
    {
      "bufferView": 2,
      "byteOffset": 32232,
      "componentType": 5126,
      "count": 230,
      "max": [
        0.7460463047027588,
        0.7460459470748901,
        -0.21628868579864502
      ],
      "min": [
        -0.7460460662841797,
        -0.7460461854934692,
        -0.7147809267044067
      ],
      "type": "VEC3"
    },
    {
      "bufferView": 2,
      "byteOffset": 34992,
      "componentType": 5126,
      "count": 230,
      "max": [
        0.8819210529327393,
        0.8819217085838318,
        -0.4713957905769348
      ],
      "min": [
        -0.881921112537384,
        -0.8819210529327393,
        -1.0
      ],
      "type": "VEC3"
    },
    {
      "bufferView": 1,
      "byteOffset": 10744,
      "componentType": 5126,
      "count": 230,
      "max": [
        1.0,
        0.375
      ],
      "min": [
        0.0,
        0.0
      ],
      "type": "VEC2"
    },
    {
      "bufferView": 0,
      "byteOffset": 16296,
      "componentType": 5125,
      "count": 1056,
      "type": "SCALAR"
    },
    {
      "bufferView": 3,
      "componentType": 5126,
      "count": 4,
      "max": [
        7.416666507720947
      ],
      "min": [
        0.0
      ],
      "type": "SCALAR"
    },
    {
      "bufferView": 4,
      "componentType": 5126,
      "count": 4,
      "max": [
        100.00000762939453,
        139.53392028808594,
        12.947009086608887
      ],
      "min": [
        100.0,
        139.53392028808594,
        12.947009086608887
      ],
      "type": "VEC3"
    },
    {
      "bufferView": 3,
      "byteOffset": 16,
      "componentType": 5126,
      "count": 355,
      "max": [
        7.416666507720947
      ],
      "min": [
        0.0
      ],
      "type": "SCALAR"
    },
    {
      "bufferView": 5,
      "componentType": 5126,
      "count": 355,
      "max": [
        0.4961455166339874,
        0.7070576548576355,
        0.7070580720901489,
        0.7071065306663513
      ],
      "min": [
        -0.7071070075035095,
        -0.4976671040058136,
        -0.49766260385513306,
        -0.49614718556404114
      ],
      "type": "VEC4"
    }
  ],
  "animations": [
    {
      "channels": [
        {
          "sampler": 0,
          "target": {
            "node": 6,
            "path": "scale"
          }
        },
        {
          "sampler": 1,
          "target": {
            "node": 6,
            "path": "rotation"
          }
        }
      ],
      "name": "Cube.001|Cube.001Action",
      "samplers": [
        {
          "input": 16,
          "interpolation": "LINEAR",
          "output": 17
        },
        {
          "input": 18,
          "interpolation": "LINEAR",
          "output": 19
        }
      ]
    }
  ],
  "asset": {
    "extras": {
      "author": "jobseijkens (https://sketchfab.com/jobseijkens)",
      "license": "CC-BY-4.0 (http://creativecommons.org/licenses/by/4.0/)",
      "source": "https://sketchfab.com/3d-models/ceiling-fan-e0ae76db6f64477ba0350d3a105f3ffd",
      "title": "CEILING FAN!!!!"
    },
    "generator": "Sketchfab-16.1.0",
    "version": "2.0"
  },
  "bufferViews": [
    {
      "buffer": 0,
      "byteLength": 20520,
      "name": "floatBufferViews",
      "target": 34963
    },
    {
      "buffer": 0,
      "byteLength": 12584,
      "byteOffset": 20520,
      "byteStride": 8,
      "name": "floatBufferViews",
      "target": 34962
    },
    {
      "buffer": 0,
      "byteLength": 37752,
      "byteOffset": 33104,
      "byteStride": 12,
      "name": "floatBufferViews",
      "target": 34962
    },
    {
      "buffer": 0,
      "byteLength": 1436,
      "byteOffset": 70856,
      "name": "floatBufferViews"
    },
    {
      "buffer": 0,
      "byteLength": 48,
      "byteOffset": 72292,
      "byteStride": 12,
      "name": "floatBufferViews"
    },
    {
      "buffer": 0,
      "byteLength": 5680,
      "byteOffset": 72340,
      "byteStride": 16,
      "name": "floatBufferViews"
    }
  ],
  "buffers": [
    {
      "byteLength": 78020,
      "uri": "scene.bin"
    }
  ],
  "extensionsUsed": [
    "KHR_materials_specular"
  ],
  "materials": [
    {
      "doubleSided": true,
      "name": "Material.004",
      "pbrMetallicRoughness": {
        "baseColorFactor": [
          0.0794315,
          0.0235771,
          0.0260655,
          1.0
        ],
        "metallicFactor": 0.0,
        "roughnessFactor": 0.9914678268335652
      }
    },
    {
      "doubleSided": true,
      "name": "Material.002",
      "pbrMetallicRoughness": {
        "baseColorFactor": [
          0.04505739999999997,
          0.0191024,
          0.030480899999999984,
          1.0
        ],
        "roughnessFactor": 0.9939077564694213
      }
    },
    {
      "doubleSided": true,
      "extensions": {
        "KHR_materials_specular": {
          "specularColorFactor": [
            1.0,
            1.0,
            1.0
          ],
          "specularFactor": 1.0
        }
      },
      "name": "Material.003",
      "pbrMetallicRoughness": {
        "baseColorFactor": [
          0.237796,
          0.121651,
          0.168216,
          1.0
        ],
        "roughnessFactor": 0.964008941602483
      }
    },
    {
      "doubleSided": true,
      "extensions": {
        "KHR_materials_specular": {
          "specularColorFactor": [
            1.0,
            1.0,
            1.0
          ],
          "specularFactor": 1.0
        }
      },
      "name": "Material.001",
      "pbrMetallicRoughness": {
        "baseColorFactor": [
          0.8,
          0.8,
          0.8,
          1.0
        ],
        "metallicFactor": 0.0,
        "roughnessFactor": 0.8040408205773457
      }
    }
  ],
  "meshes": [
    {
      "name": "Cube.001_Material.004_0",
      "primitives": [
        {
          "attributes": {
            "NORMAL": 1,
            "POSITION": 0,
            "TEXCOORD_0": 2
          },
          "indices": 3,
          "material": 0,
          "mode": 4
        }
      ]
    },
    {
      "name": "Sphere_Material.002_0",
      "primitives": [
        {
          "attributes": {
            "NORMAL": 5,
            "POSITION": 4,
            "TEXCOORD_0": 6
          },
          "indices": 7,
          "material": 1,
          "mode": 4
        }
      ]
    },
    {
      "name": "Sphere_Material.003_0",
      "primitives": [
        {
          "attributes": {
            "NORMAL": 9,
            "POSITION": 8,
            "TEXCOORD_0": 10
          },
          "indices": 11,
          "material": 2,
          "mode": 4
        }
      ]
    },
    {
      "name": "Sphere.001_Material.001_0",
      "primitives": [
        {
          "attributes": {
            "NORMAL": 13,
            "POSITION": 12,
            "TEXCOORD_0": 14
          },
          "indices": 15,
          "material": 3,
          "mode": 4
        }
      ]
    }
  ],
  "nodes": [
    {
      "children": [
        1
      ],
      "matrix": [
        1.0,
        0.0,
        0.0,
        0.0,
        0.0,
        2.220446049250313e-16,
        -1.0,
        0.0,
        0.0,
        1.0,
        2.220446049250313e-16,
        0.0,
        0.0,
        0.0,
        0.0,
        1.0
      ],
      "name": "Sketchfab_model"
    },
    {
      "children": [
        2
      ],
      "matrix": [
        0.009999999776482582,
        0.0,
        0.0,
        0.0,
        0.0,
        0.0,
        0.009999999776482582,
        0.0,
        0.0,
        -0.009999999776482582,
        0.0,
        0.0,
        0.0,
        0.0,
        0.0,
        1.0
      ],
      "name": "b693f94c224e4c84a5d4ffb54bfefba0.fbx"
    },
    {
      "children": [
        3
      ],
      "name": "Object_2"
    },
    {
      "children": [
        4,
        6,
        8,
        11
      ],
      "name": "RootNode"
    },
    {
      "children": [
        5
      ],
      "name": "Camera",
      "rotation": [
        0.4099830687046051,
        0.8860548138618469,
        -0.07571183890104294,
        0.20270287990570068
      ],
      "scale": [
        100.0,
        100.0,
        100.0
      ],
      "translation": [
        942.7373046875,
        -996.6088256835938,
        692.5791015625
      ]
    },
    {
      "name": "Object_5"
    },
    {
      "children": [
        7
      ],
      "name": "Cube.001",
      "rotation": [
        -0.5605189800262451,
        0.4310667812824249,
        0.4310668706893921,
        0.560518741607666
      ],
      "scale": [
        99.99999237060547,
        139.53390502929688,
        12.947009086608887
      ],
      "translation": [
        9.018266677856445,
        0.0,
        14.893338203430176
      ]
    },
    {
      "mesh": 0,
      "name": "Cube.001_Material.004_0"
    },
    {
      "children": [
        9,
        10
      ],
      "name": "Sphere",
      "rotation": [
        -0.7071068286895752,
        0.0,
        0.0,
        0.7071067094802856
      ],
      "scale": [
        146.42703247070313,
        146.42703247070313,
        146.42703247070313
      ],
      "translation": [
        0.0,
        -15.173572540283203,
        0.0
      ]
    },
    {
      "mesh": 1,
      "name": "Sphere_Material.002_0"
    },
    {
      "mesh": 2,
      "name": "Sphere_Material.003_0"
    },
    {
      "children": [
        12
      ],
      "name": "Sphere.001",
      "rotation": [
        -0.7071068286895752,
        0.0,
        0.0,
        0.7071067094802856
      ],
      "scale": [
        146.42703247070313,
        146.42703247070313,
        146.42703247070313
      ],
      "translation": [
        0.0,
        -15.173572540283203,
        0.0
      ]
    },
    {
      "mesh": 3,
      "name": "Sphere.001_Material.001_0"
    }
  ],
  "scene": 0,
  "scenes": [
    {
      "name": "Sketchfab_Scene",
      "nodes": [
        0
      ]
    }
  ]
}
